<svg id="logo" viewBox="0 0 76 17" data-v-ea2360c8="" data-v-517406a6="" xmlns="http://www.w3.org/2000/svg"><path d="M68.7192704,3.92109317 C68.947897,3.92009938 69.1766237,3.91910559 69.4052504,3.92129193 C70.0205293,3.92685714 70.0715021,3.99890683 69.8475823,4.5491677 C69.4793562,5.45450932 69.1116309,6.35995031 68.740701,7.26419876 C67.9064092,9.29878261 67.0702146,11.332472 66.2351216,13.3666584 C66.0423462,13.836323 65.8223319,14.291677 65.530515,14.7100621 C64.9391702,15.5578634 64.1505436,16.0114286 63.0850215,15.9997019 C62.4760515,15.9930435 61.8991273,15.8960497 61.3380258,15.6745342 C60.981216,15.5336149 60.8204864,15.4412919 61.0409013,15.0190311 C61.1295279,14.8492919 61.186309,14.6635528 61.2666237,14.4891429 C61.4802289,14.0253416 61.5024607,14.0224596 61.9753362,14.1917019 C62.1892418,14.2681242 62.4087554,14.3436522 62.6320744,14.3758509 C63.3284692,14.476323 63.859628,14.2330435 64.2337625,13.6206708 C64.4789127,13.2192795 64.5515165,12.8759255 64.3302003,12.4083478 C63.1351931,9.88332919 61.9809442,7.33922981 60.8134764,4.8013913 C60.7405722,4.64288199 60.6660658,4.48437267 60.6060801,4.32089441 C60.5173534,4.07850932 60.5878541,3.95259627 60.8444206,3.92973913 C61.0712446,3.90956522 61.3012732,3.92556522 61.5301001,3.92556522 C62.5704864,3.92864596 62.3477682,3.82121739 62.7462375,4.71821118 C63.544578,6.51478261 64.327897,8.31781366 65.1226323,10.1159752 L65.2879685,10.451677 C65.2879685,10.451677 65.3400429,10.5595031 65.4052361,10.5595031 C65.4704292,10.5595031 65.5659657,10.5704348 65.6398712,10.4387578 C65.6686123,10.387677 65.7006581,10.3120497 65.7291989,10.2386087 C65.7365093,10.2089938 65.7444206,10.1806708 65.7544349,10.1553292 C66.5092132,8.24 67.2484692,6.31870807 67.9961373,4.40059627 C68.1830043,3.92109317 68.189814,3.92337888 68.7192704,3.92109317 Z M55.8849356,7.47826087 C56.5141345,7.69659627 57.166867,7.84228571 57.7834478,8.0997764 C58.2741488,8.30469565 58.7311016,8.55542857 59.1059371,8.9383354 C60.0133333,9.86544099 59.8473963,11.5977143 58.8787124,12.4855652 C58.2754506,13.0384099 57.5522175,13.3169689 56.7358512,13.370236 C55.4143634,13.4562981 54.192618,13.1437516 53.0651073,12.4631056 C52.2714735,11.9839006 52.2565522,11.9369938 52.7903147,11.2183851 C53.1518312,10.731528 53.1050644,10.5129938 53.8513305,11.0181366 C54.7012446,11.5932422 55.6511016,11.8710062 56.6939914,11.781764 C57.0757368,11.7490683 57.4166237,11.6353789 57.6839056,11.3553292 C58.1246352,10.8934161 58.0636481,10.2828323 57.5429041,9.91145342 C57.1795851,9.65227329 56.7512732,9.5397764 56.3353791,9.40452174 C55.9523319,9.28 55.5602718,9.18320497 55.1749213,9.06544099 C54.7706438,8.94201242 54.3877969,8.76760248 54.0183691,8.56308075 C52.4512303,7.69530435 52.5358512,5.79826087 53.4781974,4.79413665 C54.0560229,4.17848447 54.7804578,3.8649441 55.6211588,3.81018634 C55.7962089,3.79875776 55.9725608,3.80849689 56.1483119,3.80849689 C57.2354649,3.76924224 58.221774,4.10713043 59.1545064,4.62618634 C59.5394564,4.84054658 59.5616881,4.95055901 59.3401717,5.33654658 C59.2184979,5.54862112 59.0845064,5.75363975 58.9580258,5.96303106 C58.8360515,6.16477019 58.6664092,6.19915528 58.4621173,6.10275776 C58.3509585,6.05038509 58.2429041,5.99145342 58.1358512,5.93132919 C57.530186,5.5910559 56.8734478,5.39796273 56.186867,5.34231056 C55.7859943,5.30981366 55.3799142,5.38742857 55.0250072,5.60655901 C54.4215451,5.9788323 54.4044206,6.65093168 54.9811445,7.06017391 C55.2567382,7.25575155 55.5691845,7.36874534 55.8849356,7.47826087 Z M47.6083119,7.71786335 C47.3660658,7.97187578 47.3630615,7.99234783 47.5883834,8.288 C48.6699285,9.70742857 49.7561803,11.1234783 50.8378255,12.5429068 C50.9590987,12.701913 51.1876252,12.8420373 51.0763662,13.0778634 C50.9678112,13.3084224 50.7187554,13.254559 50.5112589,13.2564472 C50.2298569,13.2589317 49.9473534,13.2418385 49.6673534,13.2610186 C49.3550072,13.2824845 49.1411016,13.1703851 48.9514306,12.9201491 C48.2012589,11.9301366 47.4353648,10.9518509 46.6723748,9.97147826 C46.0563948,9.18012422 46.1486266,9.22554037 45.6666381,9.66807453 C45.3447783,9.98559006 44.9403004,10.3986087 44.790186,10.6105839 C44.728598,10.7213913 44.6778255,10.8360745 44.6393705,10.9554286 C44.5548498,11.2838758 44.5837911,11.6273292 44.5837911,11.6273292 L44.5837911,12.0661863 C44.6008155,12.2518261 44.5929041,12.441441 44.5837911,12.6302609 C44.580887,12.6883975 44.5779828,12.7464348 44.5756795,12.8042733 C44.5620601,13.1372919 44.4618169,13.2407453 44.1317454,13.2535652 C43.8156938,13.2658882 43.4983405,13.2662857 43.182289,13.2532671 C42.8282833,13.238559 42.7701001,13.1769441 42.7673963,12.8006957 C42.7607868,11.9106584 42.7648927,11.0205217 42.7648927,10.1304845 C42.7647926,8.99607453 42.7647926,7.8616646 42.7647926,6.72725466 C42.7647926,4.82504348 42.7647926,2.92273292 42.7648927,1.02042236 C42.7649928,0.880795031 42.7693991,0.741167702 42.7665951,0.601639752 C42.7621888,0.384397516 42.8816595,0.272298137 43.0849499,0.265838509 C43.453877,0.254012422 43.8239056,0.247950311 44.1925322,0.263751553 C44.4539056,0.274981366 44.5524464,0.393540373 44.5754793,0.665440994 C44.585794,0.786881988 44.5784835,0.909614907 44.5784835,1.03185093 C44.5784835,3.28318012 44.5756795,5.53450932 44.5837911,7.78583851 L44.5837911,8.21465839 C44.6046209,8.24924224 44.6378684,8.27746584 44.6906438,8.29515528 C44.8526753,8.34951553 44.9703433,8.11915528 45.0878112,7.99761491 C46.3048498,6.73898137 47.5209871,5.47945342 48.7274106,4.21078261 C48.9237911,4.00427329 49.1246781,3.89913043 49.4156938,3.91562733 C49.8013448,3.93749068 50.1891989,3.92288199 50.5761516,3.9213913 C50.7407868,3.92069565 50.9028183,3.93361491 50.9778255,4.10603727 C51.0522318,4.27696894 50.8971102,4.35845963 50.8056795,4.45197516 C50.1320172,5.14047205 49.4520458,5.82290683 48.7769814,6.51001242 C48.3843205,6.90971429 47.9949642,7.31249689 47.6083119,7.71786335 Z M31.2661439,8.57639752 C31.2714735,5.99016149 33.2021316,3.73684472 36.1541488,3.73475488 C39.2325465,3.73257143 41.1077253,6.21962733 40.9995708,8.5938882 C41.0656652,10.8840745 39.3444063,13.4264845 36.1220029,13.4359764 C33.1684835,13.4446708 31.2608584,11.2054658 31.2661439,8.57639752 Z M39.1888841,8.62996273 C39.2723033,7.09614907 37.9856652,5.2301118 35.9073963,5.39309317 C34.8532904,5.4757764 34.072475,5.95875776 33.5519313,6.84144099 C33.0815594,7.63935404 32.9596853,8.50653416 33.1931187,9.41376398 C33.723176,11.4734907 35.8766524,12.3437516 37.5716738,11.4321491 C38.6797568,10.8360745 39.141216,9.84198758 39.1888841,8.62996273 Z M19.9487953,8.58414907 C19.9506009,6.16159006 21.7844206,3.73078261 24.8307725,3.7330651 C27.8595994,3.73525466 29.7346781,6.10524224 29.696123,8.58583851 C29.7094421,11.1327205 27.8129328,13.455205 24.7633763,13.4356273 C21.7395565,13.4162484 19.9468956,11.0423851 19.9487953,8.58414907 Z M27.0669671,10.7989068 C28.0356509,9.69609938 28.156824,8.03895652 27.3656938,6.80318012 C26.7768526,5.88322981 25.9416595,5.38186335 24.6663376,5.39160248 C24.0426466,5.3567205 23.3829041,5.62146584 22.8047783,6.1355528 C21.5374678,7.2626087 21.4040773,9.40531677 22.5594278,10.7364969 C23.8494707,12.2229068 25.966495,12.0518758 27.0669671,10.7989068 Z M11.5540057,4.13714286 C12.2692275,3.71627329 13.0633619,3.49247205 13.86701,3.52556522 C15.5752504,3.59602484 16.9225751,4.36849689 17.8147496,5.84606211 C18.3441059,6.72268323 18.528269,7.67890683 18.5148498,8.69932919 C18.4997282,9.84546584 18.1719599,10.8653913 17.432103,11.7391304 C16.5022747,12.8373665 15.3007582,13.3676522 13.855794,13.488795 C11.7246495,13.6675776 9.99407725,12.8000994 8.36835479,11.5917516 C7.56600858,10.9953789 6.75735336,10.4087453 5.91174535,9.87329193 C5.53831187,9.63686957 5.14134478,9.45729193 4.71353362,9.34439752 C3.75246066,9.09078261 2.82773963,9.45699379 2.30879828,10.297441 C2.26283262,10.3717764 2.21376252,10.4455155 2.17911302,10.525118 C2.07516452,10.7639255 1.89741059,10.8585342 1.63643777,10.8502857 C1.24988555,10.8380621 0.862432046,10.855354 0.475879828,10.8448199 C0.0154220315,10.8321988 -0.0984406295,10.6686211 0.0806151645,10.2508323 C0.687181688,8.83537888 1.75640916,7.94265839 3.25995708,7.5986087 C4.65454936,7.27950311 5.94469242,7.56024845 7.10034335,8.40367702 C7.78001431,8.89957764 8.43925608,9.42350311 9.1267382,9.90817391 C10.0598712,10.565764 11.0185408,11.2018882 12.1323319,11.5088696 C13.30701,11.8325466 14.4624607,11.7913043 15.5036481,11.0456646 C16.1158226,10.6073043 16.5193991,10.0289193 16.6349642,9.28546584 C16.7895851,8.29058385 16.6842346,7.34081988 16.0550358,6.4992795 C14.8686409,4.91259627 12.5534335,4.98951553 11.47299,6.66802484 C11.1653505,7.14593789 10.972475,7.66409938 11.0038197,8.24745342 C11.0168383,8.49103106 11.0203433,8.73768944 10.9962089,8.9797764 C10.9677682,9.26419876 10.8030329,9.37202484 10.5654936,9.24879503 C10.1291702,9.02270807 9.7241917,8.74255901 9.33563662,8.44223602 C9.14246066,8.29296894 9.1772103,8.06886957 9.17711016,7.86067081 C9.17701001,6.65649689 9.17711016,5.45212422 9.17851216,4.24795031 C9.17851216,3.04367702 9.17620887,1.83940373 9.17951359,0.635130435 C9.18091559,0.0835776398 9.21536481,0.0546583851 9.78818312,0.0483975155 C9.96403433,0.0465093168 10.1398856,0.0465093168 10.3157368,0.0483975155 C10.9151931,0.0548571429 11.0038197,0.144 11.0057225,0.759354037 C11.0083262,1.56223602 11.0064235,2.36501863 11.0064235,3.16790062 C11.0064235,3.37729193 11.0060229,3.58678261 11.0065236,3.79617391 C11.0079256,4.44710559 11.013133,4.45545342 11.5540057,4.13714286 Z" id="Shape" data-v-ea2360c8=""></path></svg>